<?xml version="1.0" standalone="no"?>
<!DOCTYPE svg PUBLIC "-//W3C//DTD SVG 20010904//EN"
 "http://www.w3.org/TR/2001/REC-SVG-20010904/DTD/svg10.dtd">
<svg version="1.0" xmlns="http://www.w3.org/2000/svg"
 width="315.000000pt" height="315.000000pt" viewBox="0 0 315.000000 315.000000"
 preserveAspectRatio="xMidYMid meet">
<metadata>
Created by potrace 1.14, written by Peter Selinger 2001-2017
</metadata>
<g transform="translate(0.000000,315.000000) scale(0.100000,-0.100000)"
fill="#000000" stroke="none">
<path d="M1490 2405 c-19 -7 -64 -24 -100 -38 -431 -163 -727 -276 -830 -317
-69 -27 -163 -63 -210 -80 -170 -64 -265 -102 -273 -110 -8 -7 0 -17 97 -120
28 -30 83 -89 121 -130 83 -90 307 -330 389 -417 33 -35 63 -63 67 -63 5 0 23
25 41 56 18 30 38 63 43 72 21 36 161 261 208 336 l50 78 71 -73 c39 -41 127
-135 196 -209 225 -243 249 -267 260 -250 5 8 67 109 138 225 71 115 134 211
139 212 5 2 55 -47 113 -109 204 -222 315 -338 320 -338 3 0 21 26 40 58 19
31 42 68 51 82 16 23 122 196 299 487 37 60 115 187 174 283 174 281 228 371
223 376 -2 2 -28 -5 -58 -17 -30 -12 -81 -32 -114 -45 -33 -13 -186 -71 -340
-129 -154 -58 -307 -117 -340 -130 -33 -12 -62 -22 -64 -20 -1 2 24 48 57 102
121 195 144 235 139 239 -2 3 -110 -35 -238 -84 -129 -49 -270 -103 -314 -120
-44 -17 -181 -69 -304 -116 -123 -48 -228 -85 -232 -84 -4 2 19 46 52 98 33
52 64 104 69 115 6 11 35 59 65 108 30 48 49 87 42 86 -7 0 -28 -6 -47 -14z"/>
<path d="M1995 988 c-8 -49 -82 -449 -91 -490 -6 -28 -5 -28 44 -28 l50 0 16
93 c23 124 33 153 63 177 31 24 85 26 107 4 23 -23 20 -66 -20 -251 -4 -21 -1
-23 45 -23 l49 0 21 113 c24 125 26 169 11 198 -26 47 -137 67 -199 34 -36
-18 -36 -18 -17 72 8 37 17 85 20 106 l7 37 -50 0 -49 0 -7 -42z"/>
<path d="M1003 980 c-36 -14 -47 -47 -28 -77 14 -21 22 -24 48 -19 46 9 71 50
49 82 -11 17 -44 24 -69 14z"/>
<path d="M435 831 c-16 -4 -40 -13 -52 -19 -28 -16 -33 -15 -33 4 0 12 -9 14
-42 12 l-41 -3 -28 -155 c-16 -85 -31 -165 -34 -177 -5 -22 -2 -23 44 -23 l50
0 10 58 c25 136 41 187 67 210 31 27 75 29 99 2 17 -18 16 -24 -4 -132 -12
-62 -21 -119 -21 -126 0 -9 14 -12 47 -10 l47 3 9 45 c36 202 55 240 120 240
69 0 72 -31 21 -267 -4 -21 -1 -23 46 -23 27 0 50 1 50 3 0 2 9 53 20 113 26
143 26 176 -3 209 -39 46 -138 50 -196 7 l-27 -20 -27 24 c-16 13 -36 24 -47
24 -10 0 -24 2 -32 4 -7 2 -26 1 -43 -3z"/>
<path d="M2570 832 c-85 -11 -153 -54 -181 -116 -25 -56 -25 -139 1 -181 53
-86 223 -98 314 -23 102 84 102 248 1 297 -34 17 -99 28 -135 23z m88 -92 c44
-41 19 -154 -42 -191 -41 -25 -87 -24 -120 2 -47 37 -31 140 30 188 36 28 102
28 132 1z"/>
<path d="M956 822 c-5 -9 -66 -322 -66 -341 0 -8 15 -11 47 -9 l48 3 32 170
c17 93 29 173 27 177 -7 10 -81 10 -88 0z"/>
<path d="M1140 805 c-20 -52 -16 -55 71 -55 l81 0 -116 -124 c-64 -68 -116
-131 -116 -140 0 -15 18 -16 162 -14 l162 3 7 32 6 32 -98 3 -98 3 120 128
c66 71 119 134 116 140 -2 8 -47 13 -145 15 l-142 3 -10 -26z"/>
<path d="M1515 818 c-13 -41 -43 -257 -38 -280 13 -67 119 -100 196 -60 29 16
37 17 37 6 0 -10 13 -14 45 -14 43 0 44 1 51 38 3 20 14 80 24 132 10 52 21
116 25 143 l7 47 -45 0 c-27 0 -47 -5 -50 -12 -2 -7 -12 -56 -22 -109 -9 -54
-26 -111 -36 -128 -21 -35 -62 -55 -96 -46 -41 10 -46 36 -23 151 28 148 29
144 -25 144 -28 0 -47 -5 -50 -12z"/>
<path d="M2856 559 c-21 -16 -26 -28 -24 -52 6 -65 100 -59 123 7 8 24 6 31
-14 47 -30 25 -52 24 -85 -2z"/>
</g>
</svg>
